<svg width="10" height="16" viewBox="0 0 10 16" xmlns="http://www.w3.org/2000/svg">
<path fill="currentColor" d="M6.38591 7.99903L0.337532 1.95758C0.231128 1.8511 0.146722 1.72468 0.0891364 1.58556C0.0315509 1.44643 0.00191281 1.29731 0.00191281 1.14672C0.00191281 0.996133 0.0315509 0.847017 0.0891364 0.70789C0.146722 0.568763 0.231128 0.44235 0.337532 0.335867C0.443936 0.229384 0.570255 0.144917 0.709279 0.0872884C0.848303 0.0296601 0.997307 0 1.14778 0C1.29826 0 1.44727 0.0296601 1.58629 0.0872884C1.72531 0.144917 1.85163 0.229384 1.95804 0.335867L8.80526 7.18817C8.91222 7.29434 8.99712 7.42065 9.05506 7.55982C9.11299 7.69899 9.14282 7.84826 9.14282 7.99903C9.14282 8.14979 9.11299 8.29906 9.05506 8.43823C8.99712 8.5774 8.91222 8.70371 8.80526 8.80988L1.95804 15.6622C1.85195 15.7692 1.72573 15.8542 1.58666 15.9122C1.4476 15.9701 1.29844 16 1.14778 16C0.997132 16 0.847971 15.9701 0.708905 15.9122C0.569838 15.8542 0.443621 15.7692 0.337532 15.6622C0.230569 15.556 0.145668 15.4297 0.0877303 15.2905C0.0297929 15.1514 -3.53123e-05 15.0021 -3.53123e-05 14.8513C-3.53123e-05 14.7006 0.0297929 14.5513 0.0877303 14.4121C0.145668 14.273 0.230569 14.1466 0.337532 14.0405L6.38591 7.99903Z"/>
</svg>
